<mxfile host="app.diagrams.net" modified="2024-03-27T09:10:58.028Z" agent="Mozilla/5.0 (Windows NT 10.0; Win64; x64) AppleWebKit/537.36 (KHTML, like Gecko) Chrome/119.0.6045.160 Safari/537.36" etag="HG4KNQSMXlJST9gP3QKa" version="24.0.7" type="github">
  <diagram name="Page-1" id="74e2e168-ea6b-b213-b513-2b3c1d86103e">
    <mxGraphModel dx="1050" dy="579" grid="1" gridSize="10" guides="1" tooltips="1" connect="1" arrows="1" fold="1" page="1" pageScale="1" pageWidth="1100" pageHeight="850" background="none" math="0" shadow="0">
      <root>
        <mxCell id="0" />
        <mxCell id="1" parent="0" />
        <mxCell id="77e6c97f196da883-1" value="开发流程图" style="swimlane;html=1;childLayout=stackLayout;startSize=20;rounded=0;shadow=0;labelBackgroundColor=none;strokeWidth=1;fontFamily=Verdana;fontSize=14;align=center;" parent="1" vertex="1">
          <mxGeometry x="70" y="40" width="960" height="750" as="geometry" />
        </mxCell>
        <mxCell id="77e6c97f196da883-2" value="产品经理" style="swimlane;html=1;startSize=20;" parent="77e6c97f196da883-1" vertex="1">
          <mxGeometry y="20" width="160" height="730" as="geometry" />
        </mxCell>
        <mxCell id="77e6c97f196da883-8" value="需求分析" style="rounded=1;whiteSpace=wrap;html=1;shadow=0;labelBackgroundColor=none;strokeWidth=1;fontFamily=Verdana;fontSize=12;align=center;" parent="77e6c97f196da883-2" vertex="1">
          <mxGeometry x="29" y="38" width="100" height="60" as="geometry" />
        </mxCell>
        <mxCell id="RcbmyUSW4fprWBu7XZWK-3" value="需求规格说明书" style="shape=document;whiteSpace=wrap;html=1;boundedLbl=1;" vertex="1" parent="77e6c97f196da883-2">
          <mxGeometry x="29" y="98" width="100" height="66" as="geometry" />
        </mxCell>
        <mxCell id="77e6c97f196da883-26" style="edgeStyle=orthogonalEdgeStyle;rounded=1;html=1;labelBackgroundColor=none;startArrow=none;startFill=0;startSize=5;endArrow=classicThin;endFill=1;endSize=5;jettySize=auto;orthogonalLoop=1;strokeWidth=1;fontFamily=Verdana;fontSize=8" parent="77e6c97f196da883-1" source="77e6c97f196da883-8" target="77e6c97f196da883-11" edge="1">
          <mxGeometry relative="1" as="geometry" />
        </mxCell>
        <mxCell id="107ba76e4e335f99-1" style="edgeStyle=orthogonalEdgeStyle;rounded=1;html=1;labelBackgroundColor=none;startArrow=none;startFill=0;startSize=5;endArrow=classicThin;endFill=1;endSize=5;jettySize=auto;orthogonalLoop=1;strokeWidth=1;fontFamily=Verdana;fontSize=8" parent="77e6c97f196da883-1" source="77e6c97f196da883-17" target="77e6c97f196da883-21" edge="1">
          <mxGeometry relative="1" as="geometry" />
        </mxCell>
        <mxCell id="77e6c97f196da883-3" value="项目经理" style="swimlane;html=1;startSize=20;" parent="77e6c97f196da883-1" vertex="1">
          <mxGeometry x="160" y="20" width="160" height="730" as="geometry" />
        </mxCell>
        <mxCell id="77e6c97f196da883-11" value="项目规划" style="rounded=1;whiteSpace=wrap;html=1;shadow=0;labelBackgroundColor=none;strokeWidth=1;fontFamily=Verdana;fontSize=12;align=center;" parent="77e6c97f196da883-3" vertex="1">
          <mxGeometry x="30" y="108" width="100" height="60" as="geometry" />
        </mxCell>
        <mxCell id="RcbmyUSW4fprWBu7XZWK-4" value="项目计划书&lt;div&gt;迭代计划&lt;/div&gt;" style="shape=document;whiteSpace=wrap;html=1;boundedLbl=1;" vertex="1" parent="77e6c97f196da883-3">
          <mxGeometry x="30" y="168" width="100" height="66" as="geometry" />
        </mxCell>
        <mxCell id="RcbmyUSW4fprWBu7XZWK-10" value="项目总结" style="rounded=1;whiteSpace=wrap;html=1;shadow=0;labelBackgroundColor=none;strokeWidth=1;fontFamily=Verdana;fontSize=12;align=center;" vertex="1" parent="77e6c97f196da883-3">
          <mxGeometry x="30" y="602" width="100" height="60" as="geometry" />
        </mxCell>
        <mxCell id="RcbmyUSW4fprWBu7XZWK-12" value="总结报告" style="shape=document;whiteSpace=wrap;html=1;boundedLbl=1;" vertex="1" parent="77e6c97f196da883-3">
          <mxGeometry x="30" y="660" width="100" height="66" as="geometry" />
        </mxCell>
        <mxCell id="77e6c97f196da883-4" value="架构师/设计师" style="swimlane;html=1;startSize=20;" parent="77e6c97f196da883-1" vertex="1">
          <mxGeometry x="320" y="20" width="160" height="730" as="geometry" />
        </mxCell>
        <mxCell id="77e6c97f196da883-12" value="系统架构设计&lt;div&gt;界面设计&lt;/div&gt;" style="rounded=1;whiteSpace=wrap;html=1;shadow=0;labelBackgroundColor=none;strokeWidth=1;fontFamily=Verdana;fontSize=12;align=center;" parent="77e6c97f196da883-4" vertex="1">
          <mxGeometry x="30" y="171" width="100" height="60" as="geometry" />
        </mxCell>
        <mxCell id="RcbmyUSW4fprWBu7XZWK-5" value="设计说明书" style="shape=document;whiteSpace=wrap;html=1;boundedLbl=1;" vertex="1" parent="77e6c97f196da883-4">
          <mxGeometry x="30" y="231" width="100" height="66" as="geometry" />
        </mxCell>
        <mxCell id="77e6c97f196da883-5" value="开发工程师" style="swimlane;html=1;startSize=20;" parent="77e6c97f196da883-1" vertex="1">
          <mxGeometry x="480" y="20" width="160" height="730" as="geometry" />
        </mxCell>
        <mxCell id="77e6c97f196da883-17" value="开发" style="rounded=1;whiteSpace=wrap;html=1;shadow=0;labelBackgroundColor=none;strokeWidth=1;fontFamily=Verdana;fontSize=12;align=center;" parent="77e6c97f196da883-5" vertex="1">
          <mxGeometry x="30" y="232" width="100" height="60" as="geometry" />
        </mxCell>
        <mxCell id="RcbmyUSW4fprWBu7XZWK-6" value="代码" style="shape=document;whiteSpace=wrap;html=1;boundedLbl=1;" vertex="1" parent="77e6c97f196da883-5">
          <mxGeometry x="30" y="292" width="100" height="66" as="geometry" />
        </mxCell>
        <mxCell id="77e6c97f196da883-6" value="质量工程师" style="swimlane;html=1;startSize=20;" parent="77e6c97f196da883-1" vertex="1">
          <mxGeometry x="640" y="20" width="160" height="730" as="geometry" />
        </mxCell>
        <mxCell id="77e6c97f196da883-18" value="测试" style="rounded=1;whiteSpace=wrap;html=1;shadow=0;labelBackgroundColor=none;strokeWidth=1;fontFamily=Verdana;fontSize=12;align=center;" parent="77e6c97f196da883-6" vertex="1">
          <mxGeometry x="30" y="369" width="100" height="60" as="geometry" />
        </mxCell>
        <mxCell id="RcbmyUSW4fprWBu7XZWK-7" value="测试计划&lt;div&gt;测试报告&lt;/div&gt;" style="shape=document;whiteSpace=wrap;html=1;boundedLbl=1;" vertex="1" parent="77e6c97f196da883-6">
          <mxGeometry x="30" y="429" width="100" height="66" as="geometry" />
        </mxCell>
        <mxCell id="RcbmyUSW4fprWBu7XZWK-15" value="通过" style="rhombus;whiteSpace=wrap;html=1;rounded=0;shadow=0;labelBackgroundColor=none;strokeWidth=1;fontFamily=Verdana;fontSize=12;align=center;" vertex="1" parent="77e6c97f196da883-6">
          <mxGeometry x="40" y="520" width="80" height="60" as="geometry" />
        </mxCell>
        <mxCell id="RcbmyUSW4fprWBu7XZWK-17" style="edgeStyle=orthogonalEdgeStyle;rounded=1;html=1;labelBackgroundColor=none;startArrow=none;startFill=0;startSize=5;endArrow=classicThin;endFill=1;endSize=5;jettySize=auto;orthogonalLoop=1;strokeWidth=1;fontFamily=Verdana;fontSize=8;" edge="1" parent="77e6c97f196da883-6" source="RcbmyUSW4fprWBu7XZWK-7" target="RcbmyUSW4fprWBu7XZWK-15">
          <mxGeometry relative="1" as="geometry">
            <mxPoint x="140" y="570" as="sourcePoint" />
            <mxPoint x="260" y="605" as="targetPoint" />
          </mxGeometry>
        </mxCell>
        <mxCell id="77e6c97f196da883-7" value="运维工程师" style="swimlane;html=1;startSize=20;" parent="77e6c97f196da883-1" vertex="1">
          <mxGeometry x="800" y="20" width="160" height="730" as="geometry" />
        </mxCell>
        <mxCell id="77e6c97f196da883-21" value="持续集成" style="rounded=1;whiteSpace=wrap;html=1;shadow=0;labelBackgroundColor=none;strokeWidth=1;fontFamily=Verdana;fontSize=12;align=center;" parent="77e6c97f196da883-7" vertex="1">
          <mxGeometry x="30" y="294" width="100" height="60" as="geometry" />
        </mxCell>
        <mxCell id="77e6c97f196da883-22" value="发布上线" style="rounded=1;whiteSpace=wrap;html=1;shadow=0;labelBackgroundColor=none;strokeWidth=1;fontFamily=Verdana;fontSize=12;align=center;" parent="77e6c97f196da883-7" vertex="1">
          <mxGeometry x="30" y="585" width="100" height="60" as="geometry" />
        </mxCell>
        <mxCell id="RcbmyUSW4fprWBu7XZWK-9" value="部署包/容器" style="shape=document;whiteSpace=wrap;html=1;boundedLbl=1;" vertex="1" parent="77e6c97f196da883-7">
          <mxGeometry x="30" y="354" width="100" height="66" as="geometry" />
        </mxCell>
        <mxCell id="RcbmyUSW4fprWBu7XZWK-1" style="edgeStyle=orthogonalEdgeStyle;rounded=1;orthogonalLoop=1;jettySize=auto;html=1;exitX=1;exitY=0.5;exitDx=0;exitDy=0;curved=0;" edge="1" parent="77e6c97f196da883-1" source="77e6c97f196da883-11" target="77e6c97f196da883-12">
          <mxGeometry relative="1" as="geometry" />
        </mxCell>
        <mxCell id="77e6c97f196da883-37" style="edgeStyle=orthogonalEdgeStyle;rounded=1;html=1;labelBackgroundColor=none;startArrow=none;startFill=0;startSize=5;endArrow=classicThin;endFill=1;endSize=5;jettySize=auto;orthogonalLoop=1;strokeWidth=1;fontFamily=Verdana;fontSize=8;exitX=0;exitY=0.5;exitDx=0;exitDy=0;" parent="77e6c97f196da883-1" source="77e6c97f196da883-21" target="77e6c97f196da883-18" edge="1">
          <mxGeometry relative="1" as="geometry">
            <mxPoint x="830" y="480" as="sourcePoint" />
            <Array as="points">
              <mxPoint x="720" y="344" />
            </Array>
          </mxGeometry>
        </mxCell>
        <mxCell id="77e6c97f196da883-34" style="edgeStyle=orthogonalEdgeStyle;rounded=1;html=1;labelBackgroundColor=none;startArrow=none;startFill=0;startSize=5;endArrow=classicThin;endFill=1;endSize=5;jettySize=auto;orthogonalLoop=1;strokeColor=#000000;strokeWidth=1;fontFamily=Verdana;fontSize=8;fontColor=#000000;" parent="77e6c97f196da883-1" source="77e6c97f196da883-12" target="77e6c97f196da883-17" edge="1">
          <mxGeometry relative="1" as="geometry">
            <mxPoint x="450" y="385" as="sourcePoint" />
            <mxPoint x="520" y="370" as="targetPoint" />
          </mxGeometry>
        </mxCell>
        <mxCell id="RcbmyUSW4fprWBu7XZWK-11" style="edgeStyle=orthogonalEdgeStyle;rounded=1;html=1;labelBackgroundColor=none;startArrow=none;startFill=0;startSize=5;endArrow=classicThin;endFill=1;endSize=5;jettySize=auto;orthogonalLoop=1;strokeWidth=1;fontFamily=Verdana;fontSize=8;" edge="1" parent="77e6c97f196da883-1" source="77e6c97f196da883-22" target="RcbmyUSW4fprWBu7XZWK-10">
          <mxGeometry relative="1" as="geometry">
            <mxPoint x="890" y="479" as="sourcePoint" />
            <mxPoint x="890" y="598" as="targetPoint" />
          </mxGeometry>
        </mxCell>
        <mxCell id="RcbmyUSW4fprWBu7XZWK-16" style="edgeStyle=orthogonalEdgeStyle;rounded=1;html=1;labelBackgroundColor=none;startArrow=none;startFill=0;startSize=5;endArrow=classicThin;endFill=1;endSize=5;jettySize=auto;orthogonalLoop=1;strokeWidth=1;fontFamily=Verdana;fontSize=8;" edge="1" parent="77e6c97f196da883-1" source="RcbmyUSW4fprWBu7XZWK-15" target="RcbmyUSW4fprWBu7XZWK-6">
          <mxGeometry relative="1" as="geometry">
            <mxPoint x="770" y="580" as="sourcePoint" />
            <mxPoint x="890" y="615" as="targetPoint" />
          </mxGeometry>
        </mxCell>
        <mxCell id="77e6c97f196da883-38" style="edgeStyle=orthogonalEdgeStyle;rounded=1;html=1;labelBackgroundColor=none;startArrow=none;startFill=0;startSize=5;endArrow=classicThin;endFill=1;endSize=5;jettySize=auto;orthogonalLoop=1;strokeWidth=1;fontFamily=Verdana;fontSize=8;exitX=1;exitY=0.5;exitDx=0;exitDy=0;" parent="77e6c97f196da883-1" source="RcbmyUSW4fprWBu7XZWK-15" target="77e6c97f196da883-22" edge="1">
          <mxGeometry relative="1" as="geometry" />
        </mxCell>
      </root>
    </mxGraphModel>
  </diagram>
</mxfile>
